<svg version="1.1" id="Layer_1" xmlns="http://www.w3.org/2000/svg" xmlns:xlink="http://www.w3.org/1999/xlink" x="0px" y="0px"
	 width="100%" viewBox="0 0 512 512" enable-background="new 0 0 512 512" xml:space="preserve">
<path fill="#000000" opacity="1.000000" stroke="none" 
	d="
M237.000000,1.000000 
	C251.354233,1.000000 265.708466,1.000000 280.743835,1.254683 
	C281.992279,1.840124 282.536652,2.409304 283.130219,2.466270 
	C293.955383,3.505173 304.183136,6.791169 314.358765,10.422496 
	C334.524780,17.619043 352.470337,28.556238 368.151001,42.985138 
	C387.756561,61.025604 402.331268,82.526939 412.001953,107.525360 
	C422.660675,135.077835 424.728821,163.509247 421.005524,192.302383 
	C417.789520,217.172363 407.924408,239.843765 394.207092,260.889160 
	C378.515198,284.963959 363.165710,309.262085 347.702515,333.485535 
	C344.995300,337.726440 345.489685,338.752136 350.358276,339.635773 
	C377.826782,344.621063 404.888733,351.150116 430.370605,362.829956 
	C449.096558,371.413147 466.806641,381.685730 477.090546,400.688019 
	C485.318695,415.891785 484.801941,431.477936 476.531769,446.396515 
	C466.333466,464.793243 448.796295,474.737427 430.573242,483.059448 
	C395.338196,499.150391 357.760529,506.212036 319.529205,510.697510 
	C314.060516,511.339111 308.170807,510.013092 303.000000,513.000000 
	C271.979095,513.000000 240.958206,513.000000 209.242371,512.778687 
	C207.933517,512.320557 207.335709,511.938995 206.703278,511.868561 
	C195.843643,510.659210 184.915222,509.903534 174.129349,508.227844 
	C146.211334,503.890472 118.674187,497.770752 92.410362,487.124298 
	C73.514587,479.464600 55.483723,470.130890 42.434105,453.667511 
	C28.267080,435.794373 27.324890,412.683594 40.518539,394.458313 
	C49.156826,382.525665 61.136829,374.268311 74.037964,367.530334 
	C98.987747,354.499603 125.849953,347.165771 153.268372,341.549683 
	C158.351913,340.508423 163.764313,340.566681 168.709122,337.847961 
	C168.052597,336.509766 167.640030,335.426392 167.032440,334.466431 
	C156.468201,317.775757 145.855652,301.115631 135.304977,284.416412 
	C127.234818,271.643158 118.241714,259.438080 111.023682,246.145889 
	C94.066055,214.918030 88.646614,181.476303 92.570442,146.359451 
	C96.563461,110.623451 111.423653,79.770844 135.483231,53.399136 
	C151.811203,35.502048 171.409302,21.993708 193.860931,12.594270 
	C207.760651,6.775111 222.284500,3.611209 237.000000,1.000000 
M375.679352,228.254318 
	C384.149994,212.699936 389.096832,195.997406 390.494720,178.439865 
	C392.529175,152.887451 387.911896,128.405258 376.099762,105.562157 
	C364.228424,82.604492 347.142944,64.445717 324.942047,51.013939 
	C307.709137,40.587864 289.056854,34.295086 269.177765,32.638733 
	C252.959137,31.287371 236.766022,32.482868 220.853699,37.214550 
	C192.486938,45.649670 169.194977,61.278355 151.252731,84.689384 
	C128.754166,114.045471 120.040428,147.241852 124.297211,183.975510 
	C126.442398,202.487228 132.562790,219.663269 142.155167,235.403000 
	C155.380035,257.103149 169.436844,278.295837 183.108704,299.724152 
	C204.743256,333.632599 226.312515,367.582855 248.027435,401.439728 
	C250.751526,405.686951 253.122162,410.289032 256.891693,413.759705 
	C258.373871,413.205872 259.046326,412.306763 259.678955,411.298340 
	C267.100098,399.468994 274.477966,387.611786 281.991455,375.841248 
	C302.744965,343.328979 323.659454,310.919006 344.303894,278.337860 
	C354.716278,261.904999 365.902130,245.955185 375.679352,228.254318 
M188.901215,369.400269 
	C186.352951,367.463776 183.770966,369.014435 181.216949,369.355682 
	C155.817307,372.749634 130.908386,378.212860 107.029083,387.685333 
	C93.067833,393.223541 79.635193,399.725952 69.137001,411.012970 
	C61.936913,418.754120 61.447075,425.355560 67.884964,433.515900 
	C73.444977,440.563477 80.758125,445.449738 88.522209,449.620270 
	C108.139214,460.157928 129.274811,466.391479 150.876801,471.296051 
	C176.976273,477.221741 203.479309,480.612457 230.133362,481.380432 
	C261.671234,482.289093 293.231201,482.128418 324.685394,477.826508 
	C352.579468,474.011444 379.959656,468.511017 406.286346,458.445068 
	C419.218201,453.500641 431.653412,447.545929 441.977509,437.950409 
	C453.352356,427.378357 453.554565,419.861389 442.741394,408.945251 
	C434.002258,400.122864 423.159912,394.578278 412.014313,389.768188 
	C387.795441,379.316071 362.157959,373.901428 336.281860,369.522491 
	C325.440033,367.687744 325.646118,367.893036 320.327209,376.295990 
	C303.799286,402.407227 287.196198,428.472412 270.397552,454.409943 
	C264.213776,463.957886 250.122742,463.964813 243.740738,454.616760 
	C239.058395,447.758240 234.793427,440.615509 230.313599,433.617889 
	C216.707169,412.364319 203.086746,391.119720 188.901215,369.400269 
z"/>
<path fill="#000000" opacity="1.000000" stroke="none" 
	d="
M331.623779,153.832092 
	C334.614990,179.062256 329.663239,201.238068 311.591644,219.832977 
	C299.592072,232.180069 285.306824,239.957352 268.646667,241.964920 
	C245.356506,244.771439 223.795349,239.935883 205.839722,223.300217 
	C193.020126,211.423004 184.770737,197.137573 182.384750,179.941193 
	C179.032089,155.777802 183.943100,133.843887 201.177292,115.385384 
	C213.254181,102.450546 227.855423,94.167336 245.172684,92.080116 
	C268.882965,89.222366 290.642639,94.199921 308.724091,111.313614 
	C321.019135,122.950630 328.781586,136.737381 331.623779,153.832092 
M254.773758,210.619492 
	C258.258026,210.482971 261.864197,210.883636 265.207367,210.125183 
	C292.722382,203.882889 307.826935,176.260971 297.571747,150.637573 
	C289.813324,131.252487 269.665497,119.885910 249.236618,123.829262 
	C220.758606,129.326340 206.393265,158.196625 216.408401,183.337601 
	C222.275604,198.066040 238.737885,210.360809 254.773758,210.619492 
z"/>
</svg>